# xmcd
#
# Track frame offsets:
#   150
#   15713
#   29866
#   45460
#   59678
#   74880
#   90989
#   108083
#   125252
#   139113
#   155441
#   170355
#   187322
#   204759
#   222437
#   238438
#   253775
#   270626
#   286864
#   301155
#   316895
#
# Disc length: 4458 seconds
#
# Revision: 0
# Processed by: cddbd v1.5.2PL0 Copyright (c) Steve Scherf et al.
# Submitted via: uFREEDB ActiveX Control 1.5
#
DISCID=3b116815
DTITLE=Nechivile - Nechivile 2008
DYEAR=2008
DGENRE=Country
TTITLE0=Volta pra minha vida
TTITLE1=Uma Chance a mais
TTITLE2=Não Vou tirar você do coração
TTITLE3=Enquanto o Sol Brilhar
TTITLE4=Verdadeiro Amor
TTITLE5=Doi, Doi
TTITLE6=Perdoa
TTITLE7=Você do meu Lado
TTITLE8=Não Precisa mudar
TTITLE9=por toda vida
TTITLE10=Tenho medo
TTITLE11=Sem ar
TTITLE12=Não vou mais chorar
TTITLE13=O Amor e o tempo
TTITLE14=O Nosso Amor
TTITLE15=Vem agora
TTITLE16=Por Ti
TTITLE17=Amor sem fim
TTITLE18=Te amo tanto
TTITLE19=Vou mudar
TTITLE20=pode chorar
EXTD=
EXTT0=
EXTT1=
EXTT2=
EXTT3=
EXTT4=
EXTT5=
EXTT6=
EXTT7=
EXTT8=
EXTT9=
EXTT10=
EXTT11=
EXTT12=
EXTT13=
EXTT14=
EXTT15=
EXTT16=
EXTT17=
EXTT18=
EXTT19=
EXTT20=
PLAYORDER=
